<svg xmlns="http://www.w3.org/2000/svg" fill="none" viewBox="-1.715 -1.715 48.02 48.02" id="Task-List--Streamline-Core.svg" height="48.02" width="48.02"><g id="Task-List--Streamline-Core.svg"><path id="Vector" stroke="#ffffff" stroke-linecap="round" stroke-linejoin="round" d="M37.324378 39.8125c0 0.844662 -0.33569899999999997 1.654926 -0.9328865 2.2521135 -0.597506 0.5971875 -1.4074515 0.9328865 -2.2521135 0.9328865H5.47421875c-0.8447257 0 -1.65483045 -0.33569899999999997 -2.25214535 -0.9328865 -0.597292605 -0.5971875 -0.93285465 -1.4074515 -0.93285465 -2.2521135v-35.035000000000004c0 -0.8447257 0.33556204500000003 -1.65483045 0.93285465 -2.252135795C3.8193883 1.9280620450000001 4.62949305 1.5925 5.47421875 1.5925h17.790741150000002c0.84469385 0 1.65483045 0.33556204500000003 2.2521135 0.9328642050000001L36.3914915 13.39964535c0.5971875 0.59728305 0.9328865 1.40741965 0.9328865 2.2521135V39.8125Z" stroke-width="3.43"></path><path id="Vector_2" stroke="#ffffff" stroke-linecap="round" stroke-linejoin="round" d="m21.585827899999998 20.304375 7.9625 0" stroke-width="3.43"></path><path id="Vector_3" stroke="#ffffff" stroke-linecap="round" stroke-linejoin="round" d="m21.585827899999998 31.35234375 7.9625 0" stroke-width="3.43"></path><path id="Vector_4" stroke="#ffffff" stroke-linecap="round" stroke-linejoin="round" d="m9.268859599999999 31.17194535 2.66867965 2.66867965 4.4477888 -6.2269298" stroke-width="3.43"></path><path id="Vector_5" stroke="#ffffff" stroke-linecap="round" stroke-linejoin="round" d="m9.268859599999999 19.924914100000002 2.66867965 2.66867965 4.4477888 -6.2269298" stroke-width="3.43"></path></g></svg>